# xmcd CD database file
# Copyright (C) 1993-1998 Ti Kan
#
# Track frame offsets:
#	150
#	20831
#	42646
#	56382
#	70331
#	95863
#	122819
#	138976
#	155042
#	173293
#	197232
#	212330
#
# Disc length: 3152 seconds
#
# Revision: 0
# Processed by: cddbd v1.4b41PL1 Copyright (c) Steve Scherf et al.
# Submitted via: CDmax 1.5
#
DISCID=af0c4e0c
DTITLE=Riverside Gang - ..so haben wir´s noch nie gespielt
DYEAR=1900
DGENRE=
TTITLE0=Dirty old town
TTITLE1=Nine hundred miles
TTITLE2=Cockels and mussels
TTITLE3=For Bobby
TTITLE4=Lüneburg,unsere Stadt
TTITLE5=Leaving on a jet plane
TTITLE6=High noon
TTITLE7=Country music holiday
TTITLE8=Großstadt Cowboy
TTITLE9=Gypsy rover
TTITLE10=Is´doch logo
TTITLE11=Back home again
EXTD=
EXTT0=
EXTT1=
EXTT2=
EXTT3=
EXTT4=
EXTT5=
EXTT6=
EXTT7=
EXTT8=
EXTT9=
EXTT10=
EXTT11=
PLAYORDER=
